<?xml version="1.0" encoding="utf-8"?>
<!-- Generator: Adobe Illustrator 21.1.0, SVG Export Plug-In . SVG Version: 6.00 Build 0)  -->
<svg version="1.1" xmlns="http://www.w3.org/2000/svg" xmlns:xlink="http://www.w3.org/1999/xlink" x="0px" y="0px"
	 viewBox="0 0 283.5 283.5" style="enable-background:new 0 0 283.5 283.5;" xml:space="preserve">
<style type="text/css">
	.st0{display:none;}
	.st1{display:inline;fill:#212530;}
	.st2{fill:#0037C8;}
	.st3{fill:none;stroke:#0037C8;stroke-width:5;stroke-miterlimit:10;}
</style>
<g id="Background" class="st0">
	<rect x="-0.5" y="-0.5" class="st1" width="284" height="284"/>
</g>
<g id="Layer_1">
	<g>
		<path class="st2" d="M142,16c33.7,0,65.3,13.1,89.1,36.9C254.9,76.7,268,108.3,268,142s-13.1,65.3-36.9,89.1
			C207.3,254.9,175.7,268,142,268s-65.3-13.1-89.1-36.9C29.1,207.3,16,175.7,16,142s13.1-65.3,36.9-89.1C76.7,29.1,108.3,16,142,16
			 M142,6C66.9,6,6,66.9,6,142s60.9,136,136,136s136-60.9,136-136S217.1,6,142,6L142,6z"/>
	</g>
	<g>
		<path class="st2" d="M142.5,210c11.9,0,21.5,9.6,21.5,21.5s-9.6,21.5-21.5,21.5s-21.5-9.6-21.5-21.5S130.6,210,142.5,210
			 M142.5,205c-14.6,0-26.5,11.9-26.5,26.5s11.9,26.5,26.5,26.5s26.5-11.9,26.5-26.5S157.1,205,142.5,205L142.5,205z"/>
	</g>
	<path class="st3" d="M200.5,76.5c0-22-18-34-27.5-36.5s-31.6-10.4-60,0c-20.5,7.5-28.6,14.5-33.5,27.5c-3,8-5,13-1,22
		c4.1,9.1,27,6,30,0s1.8-14.2,8-18c18-11,28-8,42-3s12.1,22.1,0,33c-19,17-22,27-27,35c-6.4,10.2-8.5,42.3-8.5,42.3
		c0,8.9,8.5,16.2,19,16.2h0c10.4,0,19-7.3,19-16.2c0,0-3.5-16.3,2.5-28.3c3-6,16-19,26-35C194.4,107.7,200.5,98.5,200.5,76.5z"/>
</g>
</svg>
